<?xml version="1.0" encoding="utf-8"?>
<!-- Generator: Adobe Illustrator 18.1.1, SVG Export Plug-In . SVG Version: 6.00 Build 0)  -->
<svg version="1.2" baseProfile="tiny" id="Layer_1" xmlns="http://www.w3.org/2000/svg" xmlns:xlink="http://www.w3.org/1999/xlink"
	 x="0px" y="0px" viewBox="0 0 1440 316.8" xml:space="preserve">
<g>
	<path fill="#BCBEC0" d="M321.6,93.1c26.9,0,42.5,13.4,42.5,36.6c0,24.1-15.6,38-42.5,38h-28.5v34.4h-12.5v-109H321.6z M293.1,155.7
		h28c19.6,0,31-8.7,31-25.7c0-16.5-11.4-24.9-31-24.9h-28V155.7z"/>
	<path fill="#BCBEC0" d="M418.1,105.1v97h-12.5v-97h-35.5v-12h83.6v12H418.1z"/>
	<path fill="#BCBEC0" d="M559.4,169.4c0,21.2-11.7,33.3-31.2,33.3c-12.2,0-22.6-5.8-30.2-15.6l6.2-10c6.9,8.3,15.4,12.6,23.8,12.6
		c12,0,18.7-7.2,18.7-20.7v-64h-38.9v-12h51.6V169.4z"/>
	<path fill="#BCBEC0" d="M693.6,147.6c0,30.7-25.2,55.1-57,55.1c-31.9,0-57.2-24.5-57.2-55.1c0-30.8,25.2-54.8,57.2-54.8
		C668.4,92.8,693.6,116.9,693.6,147.6z M592.1,147.6c0,24,20.2,43.1,44.5,43.1c24.3,0,44.2-19.2,44.2-43.1c0-24-19.9-43-44.2-43
		C612.3,104.6,592.1,123.6,592.1,147.6z"/>
	<path fill="#BCBEC0" d="M758.4,93.1c22,0,35.2,10.1,35.2,27.3c0,12.8-7.3,22-20.1,24.6c15.7,2.3,24.9,12.6,24.9,27.6
		c0,18.5-14.6,29.6-39.3,29.6h-46.7v-109H758.4z M724.9,140.1h32.9c14.6,0,23.2-6.4,23.2-17.8c0-11.1-8.6-17.3-23.2-17.3h-32.9
		V140.1z M724.9,190.3h32.9c17.8,0,28-7,28-19.5c0-11.8-10.3-18.8-28-18.8h-32.9V190.3z"/>
	<path fill="#BCBEC0" d="M879.2,105.1v38.3h50.9v12h-50.9v46.7h-12.5v-109H936v12H879.2z"/>
	<path fill="#BCBEC0" d="M1043.5,157.3c0,28.4-17.1,45.5-45.6,45.5c-28.7,0-46-17.1-46-45.5V93.1h12.5v64.2
		c0,21.2,12.8,33.5,33.5,33.5c20.7,0,33.2-12.3,33.2-33.5V93.1h12.5V157.3z"/>
	<path fill="#BCBEC0" d="M1137.7,102.8l-5.3,11.7c-9.8-6.5-21.3-9.2-30.1-9.2c-14,0-23.2,5.3-23.2,14.5c0,28,61.4,13.4,61.2,53
		c0,18.2-16,29.9-39.4,29.9c-15.9,0-31.5-6.9-41.7-16.7l5.6-11.2c10.1,9.8,24,15.4,36.3,15.4c15.7,0,25.5-6.4,25.5-16.8
		c0.2-28.7-61.2-13.4-61.2-52.5c0-17.1,15.1-28.2,37.7-28.2C1115.8,92.6,1128.7,96.7,1137.7,102.8z"/>
	<path fill="#BCBEC0" d="M1163.6,202.1v-109h12.5v109H1163.6z"/>
	<path fill="#BCBEC0" d="M1309.9,147.6c0,30.7-25.2,55.1-57,55.1c-31.9,0-57.2-24.5-57.2-55.1c0-30.8,25.2-54.8,57.2-54.8
		C1284.6,92.8,1309.9,116.9,1309.9,147.6z M1208.3,147.6c0,24,20.2,43.1,44.5,43.1c24.3,0,44.2-19.2,44.2-43.1c0-24-19.9-43-44.2-43
		C1228.6,104.6,1208.3,123.6,1208.3,147.6z"/>
	<path fill="#BCBEC0" d="M1407.2,202.1l-65.4-87.5v87.5h-12.5v-109h12.9l65.4,87.7V93.1h12.3v109H1407.2z"/>
</g>
<g>
	<path fill="#3599CC" d="M178.3,274.4H83.7v-13.7h94.6V274.4z"/>
	<g>
		<path fill="#3599CC" d="M131.1,21c-53.4,0-95.6,40.1-95.6,91.7c0,26.3,11.7,49.2,29.1,66.6C86,200.7,131.1,247,131.1,247
			s41.3-42.7,66.3-67.7c17.4-17.4,29.1-40.3,29.1-66.7C226.5,61.4,184.3,21,131.1,21z M131.1,191.8c-45.8,0-82-35.1-82-79.1
			c0-44.2,36.2-78.7,82-78.7c45.6,0,81.8,34.6,81.8,78.7C212.9,156.8,176.7,191.8,131.1,191.8z"/>
	</g>
	<g>
		<polygon fill="none" points="146.5,93.1 146.5,93.1 146.5,93.1 		"/>
		<path fill="#BCBEC0" d="M108.4,126.6c0,3.5-0.8,6.1-2.4,7.9c-1.6,1.8-3.6,2.6-5.8,2.6c19.8,0,24.4-28.4,24.4-28.4V79h-16.2V126.6z
			"/>
		<path fill="#3599CC" d="M146.5,93.1c0-7.5,5.7-13.2,13.3-13.9c0.2,0,0.5-0.2,0.7-0.2h-18.6c-6.3,0-11.4,5.1-11.4,11.4V151h16.1
			v-28.2h31.7v-14.1h-31.7L146.5,93.1L146.5,93.1C146.5,93.1,146.5,93.1,146.5,93.1z"/>
		<path fill="#3599CC" d="M100.2,137.1c-4.7,0-9.3-2.3-13.6-7l-8.3,11.5c6.5,6.7,14,10,22.7,10c6.9,0,12.6-2.1,17-6.4
			c4.4-4.3,6.6-10.7,6.6-19.3v-17.3C124.6,108.7,120,137.1,100.2,137.1z"/>
		<polygon fill="#BCBEC0" points="146.5,93.1 146.5,93.1 146.5,93.1 		"/>
		<path fill="#3599CC" d="M146.5,93.1c0-3.8,8.2-13.2,13.3-14C152.3,79.7,146.5,85.6,146.5,93.1z"/>
		<path fill="#BCBEC0" d="M159.8,79c-7.5,0.7-13.2,6.7-13.3,14.1c0,0,0,0,0,0h33.4V79C179.9,79,160,79,159.8,79z"/>
	</g>
</g>
</svg>
