<?xml version="1.0" encoding="utf-8"?>
<!-- Generator: Adobe Illustrator 18.1.1, SVG Export Plug-In . SVG Version: 6.00 Build 0)  -->
<svg version="1.1" id="Layer_1" xmlns="http://www.w3.org/2000/svg" xmlns:xlink="http://www.w3.org/1999/xlink" x="0px" y="0px"
	 viewBox="0 0 611.1 297.7" enable-background="new 0 0 611.1 297.7" xml:space="preserve">
<g>
	<path fill="#FFFFFF" d="M343.4,205.6h-76.7v-11.1h76.7V205.6z"/>
	<g>
		<g>
			<path fill="#FFFFFF" d="M22,238.9c14.5,0,22.8,7.2,22.8,19.6c0,12.9-8.4,20.4-22.8,20.4H6.7v18.5H0v-58.5H22z M6.7,272.5h15
				c10.5,0,16.6-4.7,16.6-13.8c0-8.9-6.1-13.4-16.6-13.4h-15V272.5z"/>
			<path fill="#FFFFFF" d="M73.7,245.3v52H67v-52H48v-6.4h44.9v6.4H73.7z"/>
			<path fill="#FFFFFF" d="M149.5,279.8c0,11.4-6.3,17.9-16.7,17.9c-6.5,0-12.1-3.1-16.2-8.4l3.3-5.3c3.7,4.4,8.3,6.8,12.8,6.8
				c6.4,0,10-3.8,10-11.1v-34.3h-20.9v-6.4h27.7V279.8z"/>
			<path fill="#FFFFFF" d="M221.5,268.1c0,16.5-13.5,29.6-30.6,29.6c-17.1,0-30.7-13.1-30.7-29.6c0-16.5,13.5-29.4,30.7-29.4
				C207.9,238.7,221.5,251.7,221.5,268.1z M167,268.1c0,12.9,10.9,23.1,23.9,23.1c13,0,23.7-10.3,23.7-23.1
				c0-12.9-10.7-23.1-23.7-23.1C177.9,245.1,167,255.3,167,268.1z"/>
			<path fill="#FFFFFF" d="M256.2,238.9c11.8,0,18.9,5.4,18.9,14.6c0,6.9-3.9,11.8-10.8,13.2c8.4,1.3,13.4,6.8,13.4,14.8
				c0,9.9-7.9,15.9-21.1,15.9h-25.1v-58.5H256.2z M238.3,264.1h17.6c7.9,0,12.4-3.4,12.4-9.5c0-5.9-4.6-9.3-12.4-9.3h-17.6V264.1z
				 M238.3,291h17.6c9.5,0,15-3.8,15-10.4c0-6.3-5.5-10.1-15-10.1h-17.6V291z"/>
			<path fill="#FFFFFF" d="M321,245.3v20.6h27.3v6.4H321v25.1h-6.7v-58.5h37.2v6.4H321z"/>
			<path fill="#FFFFFF" d="M409.1,273.3c0,15.2-9.2,24.4-24.5,24.4c-15.4,0-24.6-9.2-24.6-24.4v-34.4h6.7v34.4c0,11.4,6.9,18,18,18
				c11.1,0,17.8-6.6,17.8-18v-34.4h6.7V273.3z"/>
			<path fill="#FFFFFF" d="M459.7,244.1l-2.8,6.3c-5.3-3.5-11.4-4.9-16.1-4.9c-7.5,0-12.4,2.8-12.4,7.8c0,15,32.9,7.2,32.8,28.4
				c0,9.8-8.6,16-21.1,16c-8.5,0-16.9-3.7-22.4-8.9l3-6c5.4,5.3,12.9,8.3,19.5,8.3c8.4,0,13.7-3.4,13.7-9
				c0.1-15.4-32.8-7.2-32.8-28.2c0-9.2,8.1-15.1,20.2-15.1C447.9,238.7,454.8,240.8,459.7,244.1z"/>
			<path fill="#FFFFFF" d="M473.5,297.4v-58.5h6.7v58.5H473.5z"/>
			<path fill="#FFFFFF" d="M552,268.1c0,16.5-13.5,29.6-30.6,29.6c-17.1,0-30.7-13.1-30.7-29.6c0-16.5,13.5-29.4,30.7-29.4
				C538.5,238.7,552,251.7,552,268.1z M497.5,268.1c0,12.9,10.9,23.1,23.9,23.1c13,0,23.7-10.3,23.7-23.1
				c0-12.9-10.7-23.1-23.7-23.1C508.4,245.1,497.5,255.3,497.5,268.1z"/>
			<path fill="#FFFFFF" d="M604.2,297.4l-35.1-47v47h-6.7v-58.5h6.9l35.1,47v-47h6.6v58.5H604.2z"/>
		</g>
	</g>
	<g>
		<path fill="#FFFFFF" d="M305.1,0c-43.3,0-77.6,32.6-77.6,74.4c0,21.4,9.5,40,23.6,54.1c17.3,17.3,54,54.9,54,54.9
			s33.5-34.6,53.8-54.9c14.1-14.1,23.6-32.7,23.6-54.1C382.5,32.8,348.2,0,305.1,0z M305.1,138.6c-37.2,0-66.5-28.5-66.5-64.2
			c0-35.9,29.4-63.8,66.5-63.8c37,0,66.4,28.1,66.4,63.8C371.4,110.2,342.1,138.6,305.1,138.6z"/>
	</g>
	<g>
		<path fill="#FFFFFF" d="M317.6,58.5h27.1V47.1c0,0-12.9,0-15.8,0h-0.6h-14.5c-5.1,0-9.3,4.1-9.3,9.3v49.2h13V82.6h25.7V71.1h-25.7
			L317.6,58.5C317.6,58.5,317.6,58.5,317.6,58.5z"/>
		<path fill="#FFFFFF" d="M286.7,85.7c0,2.8-0.7,5-2,6.4c-1.3,1.4-2.9,2.1-4.7,2.1c-3.8,0-7.5-1.9-11-5.7l-6.8,9.4
			c5.2,5.4,11.4,8.1,18.4,8.1c5.6,0,10.2-1.7,13.8-5.2c3.6-3.5,5.4-8.7,5.4-15.6v-14V47.1h-13.1V85.7z"/>
	</g>
</g>
</svg>
